<svg version="1" xmlns="http://www.w3.org/2000/svg" width="9350.667" height="9350.667" viewBox="0 0 7013.000000 7013.000000"><path d="M3437.8.5c-.2.1-12 .6-26.3.9-35 .9-57 1.7-83 3.1-4.9.3-13 .7-18 1-18.8 1-29.2 1.6-35.5 2-3.6.3-9.9.7-14 1-21.3 1.5-36 2.6-40 3-1.9.2-7.5.6-12.5 1-4.9.3-10.6.7-12.5 1-1.9.2-6.8.7-10.9 1-4.1.4-8.7.8-10.3 1-1.6.2-6.3.7-10.6 1-4.2.4-8.8.8-10.2 1-1.4.2-5.9.6-10 1s-8.6.8-10 1c-1.4.2-5.4.6-9 1-3.6.4-7.6.8-9 1-1.4.2-5.4.7-9 1-3.6.4-7.2.9-8 1-.8.2-4.9.6-9 1s-8.2.8-9 1c-1.4.3-7.7 1.1-16.5 2.1-2.2.2-5.1.7-6.5.9-1.4.2-5 .7-8.1 1-3.1.3-6.5.7-7.5.9-1.9.4-6.9 1-15.9 2.1-2.7.4-6.1.8-7.5 1-1.4.3-4.5.7-7 1-2.5.3-5.6.7-7 1-1.4.3-4.5.7-7 1-2.5.4-6.7 1-9.5 1.5-2.7.5-7.5 1.2-10.5 1.5-3 .3-6.2.8-7 1-.8.2-7.3 1.3-14.5 2.5-7.1 1.1-14.1 2.2-15.4 2.5-1.3.2-4.9.7-8 1.1-3.1.3-5.9.8-6.2 1-.3.1-7.5 1.4-16 2.8-8.5 1.5-16.5 2.8-17.9 3.1-1.3.3-4 .7-6 1-2 .3-4.7.7-6 1-13.3 2.6-21.4 4.1-27.5 5.1-7 1.2-83.7 16.7-91 18.4-13.6 3.1-21.9 5-24.5 5.4-1.4.2-5.4 1.1-9 1.9-3.6.9-11.7 2.8-18 4.2-6.3 1.5-13.7 3.3-16.5 4-2.7.8-6.3 1.6-8 1.9-1.6.3-11.1 2.6-21 5.1-9.9 2.5-19.1 4.8-20.5 5.1-2.1.4-28.3 7.2-53.5 13.9-3.3.9-6.7 1.8-7.5 2-2.9.7-27.6 7.6-40 11.1-22.5 6.4-68.9 20.4-94.5 28.5-13.7 4.4-25.7 8.2-26.5 8.4-1.4.3-49.9 16.6-53 17.8-.8.3-6.4 2.2-12.5 4.3-19.9 6.7-96.7 34.6-103 37.4-1.1.5-8.1 3.2-15.5 6.1-21.1 8-76.8 30.4-84.5 33.9-1.1.5-13 5.6-26.5 11.4-26.8 11.4-38.4 16.5-50.3 22-4.3 2-8.1 3.6-8.4 3.6-.3 0-3.6 1.4-7.2 3.1-3.6 1.8-11.8 5.5-18.1 8.4-42.1 19.2-114.4 54.5-150 73.2-34.6 18.2-70.3 37.4-87.3 47-4.2 2.4-9.9 5.5-12.5 7-2.6 1.4-7.6 4.3-11.2 6.3-3.6 2-8.5 4.8-11 6.2-4.5 2.5-21.1 12.1-24 13.8-5.9 3.6-15.1 9-15.4 9-1 0-79.6 47.8-88.9 54.1-3.2 2.1-6 3.9-6.2 3.9-.2 0-4.4 2.5-9.2 5.6-4.8 3.2-11 7.1-13.8 8.9-32.4 20.8-71.6 47-102.4 68.4-6.7 4.7-13 9-13.9 9.6-.9.5-2.1 1.4-2.6 1.8-3.2 2.3-11.7 8.4-13.6 9.7-1.2.8-6.1 4.3-10.9 7.8-4.7 3.4-9.7 7-11.1 8-12.5 8.5-74.9 55-98.2 73.1-10.2 8-25.4 19.9-27.6 21.6-.7.5-2.1 1.7-3 2.5-1 .8-5.6 4.5-10.4 8.2-4.7 3.8-9.2 7.4-10 8.1-.7.7-2 1.8-2.9 2.3-1.5.8-3.3 2.3-14.8 11.9-2 1.7-7.2 5.9-11.6 9.5-4.4 3.5-8.2 6.7-8.5 7-.3.3-4.3 3.6-9 7.4-4.7 3.8-8.9 7.4-9.5 8-.5.6-3 2.7-5.5 4.6-2.5 1.9-4.9 4-5.5 4.6-.5.6-5.3 4.6-10.5 9-5.2 4.3-9.7 8.2-10 8.5-.3.3-3.9 3.4-8 6.9-4.1 3.5-7.7 6.7-8 7-.3.3-5.7 5-12 10.5-10 8.7-16.2 14.1-20.4 18-.6.6-7.6 6.9-15.6 14-8 7.2-15.4 13.9-16.6 15-1.1 1.1-6.5 6-11.9 11-5.4 4.9-13.7 12.7-18.4 17.1-4.7 4.5-10.2 9.6-12.1 11.4-31.2 28.7-111.6 109.1-145.5 145.5-2.1 2.2-8.4 8.9-14 15-5.7 6-11.6 12.4-13.1 14.1-1.6 1.7-6.9 7.5-11.8 12.8-4.9 5.3-10.5 11.5-12.5 13.8-2 2.3-4.5 5.1-5.6 6.2-2.6 2.7-16.4 18.3-23.5 26.5-3 3.5-6.2 7.1-7 8-.9.9-4.5 5-8 9.1-3.6 4.1-7.2 8.2-8 9.1-.8.9-2.4 2.7-3.4 4-1.1 1.3-7 8.2-13.1 15.4-21.7 25.5-49.7 59.4-67 81.2-3.8 4.8-7.2 9-7.5 9.3-.6.6-11.5 14.3-15 19-2.3 3.1-17.6 22.7-20.3 26-2.1 2.7-7.1 9.3-8.7 11.6-.8 1.2-10.2 13.7-20.9 28-20.3 27-29.1 39-46.8 63.9-5.8 8.2-12.4 17.5-14.5 20.5-26.7 37.5-86.8 128.1-98.9 148.9-1.7 3-3.6 6-4.3 6.7-.9 1.1-16.2 25.9-22.1 35.9-1.1 1.9-5.1 8.6-9 15-3.8 6.3-8.4 13.9-10.1 16.8-7.9 13.2-20.9 35.6-23.2 39.7-1.3 2.5-2.8 4.9-3.2 5.5-.4.5-2.2 3.7-4 7-1.8 3.3-4.2 7.6-5.3 9.5-4.8 8.3-20.3 36-23.5 42-1.9 3.6-4 7.4-4.7 8.6-.8 1.1-3.5 6.1-6 11-2.6 4.9-6.6 12.3-8.8 16.4-9.2 17.2-11.8 22.2-19.2 36.5-10.3 19.8-34.5 68.2-43.5 87-15.6 32.5-18.5 38.5-24.2 51-3.3 7.1-7.4 15.9-9 19.5-1.7 3.6-5.7 12.6-9 20s-7.2 16-8.5 19c-8.1 17.6-33.8 78.7-43.4 102.9-3.9 9.7-7.6 18.9-8.4 20.6-2.4 5-30.5 79-32.5 85.5-.5 1.4-2.2 6.3-4 11-11.8 31.8-35.2 100.6-46.5 137-7.2 23.1-19.5 63.6-21.5 70.5-1.3 4.4-4 13.8-6 21-6.1 21-12.1 42.5-13.5 48.5-.2.8-2.4 8.9-4.8 18s-5.4 20.5-6.6 25.5c-1.3 4.9-2.7 10.1-3.2 11.5-.4 1.4-1.1 3.6-1.3 5-.8 3.8-1.3 6.1-2.6 11-.7 2.5-1.4 5.3-1.6 6.3-.2 1-.6 2.7-.9 3.7-.3 1-.8 2.7-1 3.7-.5 2.2-5.5 24.2-6 26.3-2.9 11.6-15.2 65.9-16.1 71-.3 1.4-1.1 5.7-2 9.6-.8 3.9-1.7 7.7-1.8 8.5-1.5 7.6-2.4 12-3 14.6-.2 1-1.4 6.7-2.5 12.8-1.2 6-2.6 12.8-3.1 15-.5 2.2-1.2 5.6-1.5 7.5-.3 1.9-1.4 8-2.5 13.5s-2.6 14-3.5 19c-.9 4.9-2.4 13.7-3.5 19.5-1 5.8-2.1 12.1-2.5 14-.3 1.9-1 6.1-1.6 9.3-.5 3.2-1.2 7-1.4 8.5-.2 1.5-.6 3.6-.8 4.7-.5 2.2-1.4 7.9-2.3 14-.3 2.2-1.4 9.2-2.4 15.5-1.8 10.8-2.2 13.1-3.5 22.8-.3 2-.8 4.8-1 6.2-.3 1.4-.7 4.5-1 7-.3 2.5-.7 5.6-1 7-.9 4.7-2.9 19-5.1 36.5-.3 2.7-.8 5.7-.9 6.5-.2.9-.6 4.3-1 7.5-.4 3.3-.9 6.8-1.1 7.7-.1.9-.6 4.8-.9 8.5-.4 3.7-.9 7.5-1 8.4-.2.9-.6 4-1 7-.3 3-.8 7-1.1 8.9-.2 1.9-.7 6-1 9-.3 3-.7 6.6-.9 8-.2 1.4-.7 5.4-1 9-.3 3.6-.8 8.1-1 10-1.2 9.6-1.4 12-2 18-.3 3.6-.8 8.1-1 10-.2 1.9-.7 6.6-1 10.3-.3 3.7-.7 8.2-1 10-.5 4.2-1.7 17.3-2.9 33.2-.3 4.4-.8 10-1 12.5-.3 2.5-.7 8.5-1.1 13.5-.4 4.9-.8 11-1 13.5-.4 4.6-1.2 16.8-2.1 30-.2 4.1-.6 10.4-.9 14-.8 11.5-3 56.2-4 82-3.1 76.3-2.7 209.2 1 288.5.3 6.6.8 16.9 1 23 .3 6 .7 14.1 1 18 .3 3.8.7 11.9 1.1 17.9.6 12.4 1 19.2 1.8 28.6.3 3.6.8 10.5 1.1 15.5.3 4.9.8 11 1 13.5.3 2.5.7 8.1 1 12.5.3 4.4.8 9.8 1 12 .3 2.2.7 7.6 1 12 .3 4.4.8 9.8 1 12 .8 7.3 1.5 14.9 2 20.5.2 3 .7 8.2 1 11.5.6 5.8.8 7.5 1.9 18 1.2 10 1.5 13.1 2.1 19.5.3 3.6.7 7.6 1 9 .2 1.4.7 5.4 1.1 9 .3 3.6.7 7.2.9 8 .2.8.6 4.4 1 8 .3 3.6.8 7.2 1 8 .2.8.7 4.2 1 7.5.3 3.3.7 7.1 1 8.5.2 1.4.7 5 1.1 8 .3 3 .8 6.8 1 8.5.2 1.6.7 4.8.9 7 .3 2.2.8 5.1 1 6.5.2 1.4.6 4.6.9 7.2.6 4.9 1 7.9 2.7 18.8.6 3.6 1.2 8.3 1.5 10.5.3 2.2.9 6.5 1.5 9.5.5 3 1.1 7.5 1.4 10 .3 2.5 1 7 1.5 10 1.7 10 2.1 12.4 4.1 25.2 1 7 2.1 13.3 2.4 14 .2.7.7 3.1 1 5.3.3 2.2 1 6.5 1.5 9.5s1.2 7.1 1.5 9c1.3 7.8 2.7 15.9 4 22.5.7 3.8 1.6 8.7 1.9 10.9.4 2.1.8 4.1 1 4.5.2.3.7 3 1 6 .4 2.9.8 5.6 1 6 .2.3.7 2.2 1 4.1.7 4.5 1.1 6.4 4.6 24.1 1.6 8 3.2 16.1 3.5 18 .3 1.9.8 4.2 1.1 5.1.3.9.6 2.5.8 3.5 1.1 5.2 7.8 37.1 9.7 45.3 2.7 12 3.1 13.9 6.3 28.5 1.5 6.6 3.1 13.6 3.6 15.5.6 1.9 2.2 8.4 3.6 14.5 6.4 27.7 20.6 83.2 29.4 115 2.3 8.2 4.8 17.2 5.5 20 1.4 5.3 10.9 37.9 16.9 58 1.9 6.6 5.6 18.5 8.1 26.5s5.7 18.3 7.1 23c10.3 34.5 54.3 161.2 63.4 182.5.5 1.1 2.5 6.5 4.6 12 2 5.5 4.2 11.3 4.9 13 .7 1.6 7 17.4 14 35 14.6 36.6 27.3 67.4 36.5 88 1 2.2 3.6 8.3 5.8 13.5 2.2 5.2 5.4 12.4 7 16 1.6 3.6 3.9 8.5 5 11 4.9 10.9 22.5 49.4 27 59 2.7 5.8 6.6 14.1 8.7 18.5 6.8 14.4 46.3 93.6 54.8 110 8.8 16.8 18.2 34.6 22.9 43 1.5 2.7 3.8 7 5.1 9.5 5.1 9.7 20.8 38 25.6 46.3 2.8 4.9 5.1 9 5.1 9.3 0 .2 1.8 3.3 4 6.9 2.2 3.6 4 6.7 4 6.9 0 .4 24.3 42 32.6 55.9 3.3 5.3 10.9 17.9 16.9 27.8 6.1 9.9 11.5 18.8 12 19.7.6 1 2.4 4 4.1 6.7 19.9 31.5 31.1 49.2 38.2 60 21.5 33 61.2 91.7 65.7 97.2.6.6 3.5 4.8 6.5 9.3 10.6 15.6 44 61.6 65.4 90 51.5 68.4 119.2 151.7 167.5 206 4.6 5.2 9.8 11.1 11.5 13 12.8 14.5 28.9 32.4 33.2 37 2.9 3 6.2 6.6 7.4 8 1.8 2.1 8.9 9.9 23.4 25.4 2.4 2.6 19.7 20.8 40 42 21.1 22.2 78.4 78.9 105.1 104.1 8.7 8.2 17 16.1 18.5 17.5 2.7 2.6 26 24.2 36.6 33.9 5.7 5.3 19.3 17.5 23.8 21.4 1.2 1 3.9 3.5 6.1 5.5 2.2 2 7.4 6.6 11.5 10.2 4.1 3.6 7.7 6.7 8 7 .3.3 3.9 3.4 8 7s7.7 6.7 8 7c.7.7 7.8 6.8 14.5 12.5 3.3 2.7 9.6 8.1 14.1 12 4.5 3.8 9.2 7.9 10.5 8.9 1.3 1.1 4 3.3 6 5 1.9 1.7 5.5 4.7 7.9 6.6 2.3 1.9 4.8 4 5.4 4.5 1.1 1 4.6 3.9 12 9.9 2.1 1.7 5.5 4.5 7.5 6.2 2 1.7 14.2 11.5 27.1 21.8 12.9 10.3 24.4 19.5 25.5 20.4 1.1.9 6.7 5.3 12.5 9.7 5.8 4.4 11.2 8.5 12 9.2 1.6 1.4 28.1 21.6 32.1 24.6 1.3 1 9.2 6.8 17.5 13 32.5 24.1 38.8 28.7 76.5 55.3 51.4 36.2 101.6 69.5 153.4 101.8 14.9 9.3 29.4 18.4 32.3 20.3 2.9 1.9 6.8 4.2 8.5 5.2 1.8 1 9.7 5.8 17.7 10.6 37 22.3 93.4 54.6 128.5 73.5 9.2 5 16.3 8.8 23.8 12.9 2.8 1.5 10.4 5.5 16.7 8.8 6.3 3.3 16.3 8.6 22.1 11.6 13.4 7.1 77.5 39.1 89.4 44.7 5 2.4 14.2 6.7 20.5 9.8 22.4 10.6 30.1 14.2 30.4 14.2.2 0 5.5 2.4 11.7 5.4 6.3 2.9 19.3 8.8 28.9 13.1 9.6 4.2 19.3 8.5 21.5 9.5 18.5 8.4 68.2 29.3 94 39.6 8.8 3.6 16.9 6.8 18 7.3 3.2 1.4 8.9 3.6 24.5 9.6 8 3 15.4 6 16.5 6.5 1.7.8 20.7 7.8 54.5 20.3 9.2 3.4 27.8 10.1 52 18.5 12.9 4.6 71.9 24.3 73.5 24.6.6.2 3.9 1.2 7.5 2.3 21.9 7.1 69.2 21.7 75.5 23.3 1.7.4 10.2 2.9 19 5.5 8.8 2.5 20.1 5.8 25 7.2 15.8 4.3 52.9 14.4 54.8 14.8 1 .2 2.7.7 3.7 1 1 .3 2.7.8 3.7 1 1 .2 11.7 2.9 23.8 6 20.5 5.2 76.9 18.8 82.5 19.8 2.5.5 5.7 1.2 18.4 4.2 3.8.9 7.9 1.9 9 2.1 1.2.2 5.3 1 9.1 1.9 3.9.8 8.1 1.7 9.5 1.9 1.4.3 2.5.5 2.5.6 0 .1.9.3 2 .5 2.5.5 8.6 1.7 10 2.1 1.4.3 1.7.4 37 7.3 41.7 8.2 40.7 8 43.5 8.5 1.4.2 5.4.9 9 1.6 3.6.7 7.5 1.4 8.8 1.6 1.2.2 3.4.6 5 .9 2.3.4 40.6 6.9 47.1 8 1.3.2 4.5.7 7 1.1 2.5.4 5.5.8 6.6 1 1.1.3 4.9.9 8.5 1.4 3.6.5 7.6 1.2 9 1.4 1.4.3 7.5 1.2 13.5 2.1 6.1.9 12.1 1.8 13.5 2 1.4.2 4.5.6 7 1 2.5.3 5.6.8 7 1 1.4.2 4.1.6 6 .9 11.3 1.5 20.1 2.7 23.5 3.1 6.1.8 11.3 1.5 19 2.5 3.9.6 8.8 1.2 11 1.4 9.1 1.1 22.2 2.7 25 3.1 1.7.2 5.7.7 9 1 3.3.3 7.6.8 9.5 1 4.5.6 11 1.3 18.5 2 3.3.3 7.1.8 8.5 1 1.4.2 5.7.7 9.5 1 3.9.3 8.8.7 11 1 3.8.4 8.4.8 20.5 2 3 .3 7.5.7 10 1 4.9.5 14.9 1.3 25 2 3.6.3 8.5.7 11 .9 2.5.3 8.3.8 13 1.1 10.1.7 18.9 1.3 28.5 2 3.9.2 10.8.7 15.5 1 4.7.3 11.9.7 16 1 11.5.7 37.1 1.9 62 3 93.1 4 222.7 3.6 313.5-1 4.4-.2 13.4-.7 20-1 6.6-.3 14.7-.8 18-1 3.3-.2 10.7-.7 16.5-1 11-.6 19.4-1.2 29.5-2 3.3-.3 9.6-.7 14-1 4.4-.3 10-.7 12.5-1 2.5-.3 8.1-.7 12.5-1 4.4-.4 10-.8 12.5-1 2.5-.3 7.7-.7 11.7-1 3.9-.3 8.5-.7 10.1-.9 1.6-.3 6.9-.7 11.8-1.1 4.9-.4 9.8-.9 10.9-1.1 1.1-.2 5.4-.6 9.5-.9 4.1-.4 8.2-.8 9-1 .8-.2 4.8-.7 8.9-1 4.1-.4 8.8-.8 10.5-1.1 1.7-.2 5.8-.6 9.1-.9 3.3-.3 7.1-.7 8.5-1 1.4-.2 5-.7 8-1 6.5-.7 12.2-1.4 17-2 1.9-.3 5.5-.7 8-1 7.2-.8 53.4-6.9 60-8 1.4-.2 4.5-.7 7-1 2.5-.3 5.6-.8 7-1 1.4-.3 8.6-1.3 16-2.4 7.4-1.1 15.3-2.3 17.5-2.6 2.2-.3 6.5-1 9.5-1.5s6.9-1.2 8.5-1.4c1.7-.3 7.1-1.2 12-2 11.3-1.9 16.5-2.7 19-3.1 1.1-.2 3.6-.6 5.5-.9 8.3-1.5 31.8-5.7 34.5-6.1 2.6-.5 4.9-.9 15.5-3 1.4-.3 3.9-.7 5.5-1 1.7-.3 10.9-2.1 20.5-4s18.9-3.7 20.5-3.9c1.7-.3 8.4-1.7 15-3.1 13.9-3 34.9-7.4 38.5-8.1 1.4-.3 4.1-.9 6-1.4 1.9-.5 4.6-1.1 6-1.4 1.4-.2 7.5-1.6 13.5-3 6.1-1.4 12.1-2.7 13.5-3 3.8-.7 24-5.5 28-6.6 1.9-.6 5.8-1.5 8.5-2.1 2.8-.6 5.7-1.2 6.5-1.4.8-.2 10.7-2.7 22-5.5s21.2-5.3 22-5.5c.8-.2 4.2-1 7.5-2 3.3-.9 11-2.9 17-4.5 13.2-3.4 31.6-8.4 40.5-11 3.6-1 11-3 16.5-4.5s11.8-3.3 14-4c2.2-.8 8.1-2.5 13-3.9 11.4-3.3 49.9-14.8 58.5-17.5 3.6-1.1 12.4-3.9 19.5-6.1 37.8-11.9 127.1-42.5 153.5-52.7 3.6-1.3 9-3.4 12-4.5 28-10.2 109.1-42.3 123.5-48.8 1.1-.5 12.8-5.5 26-11.1s26.5-11.3 29.5-12.6c3-1.4 6.9-3 8.5-3.8 1.7-.7 6.5-2.9 10.8-4.9 4.3-2 8-3.6 8.3-3.6.2 0 5.2-2.3 11-5 5.8-2.8 10.8-5 10.9-5 .2 0 5.1-2.2 11-5 5.9-2.7 10.8-5 11-5 .2 0 8.8-4.1 19.1-9 10.2-5 18.8-9 19.1-9 .6 0 86.4-42.9 100.8-50.5 12.8-6.7 36.8-19.4 49.5-26.3 3.6-1.9 8.8-4.7 11.5-6.2 42.3-22.8 125.1-71 162.5-94.4 3.6-2.3 7.4-4.6 8.5-5.3 1.1-.6 9-5.5 17.5-10.9 43.7-27.6 83.8-54.2 135.5-89.9 15.9-10.9 58.3-41.1 65.5-46.6 1.9-1.4 16.1-12 31.5-23.5 15.4-11.4 28.2-21.1 28.5-21.4.3-.3 2.1-1.7 4-3s3.7-2.7 4-3c.3-.3 6.6-5.3 14-11 11.9-9.2 31.5-24.8 67.5-53.6 6.1-4.9 11.2-9.1 11.5-9.5.3-.3 4.6-3.9 9.5-7.9 5-4.1 9.2-7.6 9.5-7.9.3-.3 4.6-4 9.5-8.1 5-4.1 12.6-10.5 17-14.3 4.4-3.8 10.3-8.8 13-11.1 7.2-6.1 37.9-32.9 38.5-33.6.3-.3 7-6.4 15-13.4 8-7.1 19.2-17.3 25-22.7 5.8-5.3 11.6-10.7 12.9-11.9 1.4-1.1 7.9-7.2 14.5-13.4 6.7-6.3 13.9-13.1 16.1-15.1 29.5-27.2 100.4-98.1 139.7-139.7 7-7.5 24.9-26.5 28.5-30.4 9.8-10.7 20-21.9 21.3-23.4 1.5-1.7 14.5-16.3 16.5-18.4.6-.6 4.6-5.2 9-10.1 4.4-5 8.2-9.2 8.5-9.5.3-.3 3.5-3.9 7-8 3.6-4.1 7.7-8.9 9.2-10.5 3.5-3.9 6.1-7 11.1-12.9 2.3-2.7 7.4-8.6 11.2-13 14.4-16.6 54.1-64.8 72-87.5 2.8-3.4 8-9.9 11.6-14.4 26.2-32.7 74.3-97 109.6-146.7 10-14.1 15.9-22.6 35.5-51 21-30.5 60.8-91.5 78.9-121 2.8-4.7 9.8-15.9 15.4-25 13.5-21.8 46.5-77.9 46.5-79.1 0-.5.4-.9.9-.9s1.1-.8 1.4-1.8c.3-.9 2-4.2 3.8-7.2 1.7-3 4.2-7.5 5.6-10 1.4-2.5 4.2-7.4 6.3-11 2-3.6 5-8.8 6.5-11.5 1.5-2.8 4.9-8.9 7.6-13.7 2.7-4.8 6.7-12.2 9-16.5 2.3-4.3 5.6-10.3 7.3-13.3 1.7-3 4.9-8.9 7-13 2.1-4.1 5.4-10.4 7.3-14 14-26.1 45.1-87.8 57.6-114 3-6.3 8.4-17.7 12.1-25.3 3.6-7.6 6.6-14 6.6-14.1 0-.2 2.5-5.7 5.6-12.2 3.1-6.6 7.4-16 9.6-20.9 2.2-5 5.2-11.5 6.5-14.5 5.5-12 18.1-40.8 24.3-55.5 2.3-5.5 5.1-11.8 6-14 3.2-7.2 20.6-49.6 27.5-67 3.7-9.4 7.1-17.9 7.6-19 .5-1.1 2.5-6.3 4.4-11.5 1.9-5.2 4-10.4 4.5-11.5.5-1.1 5.7-15.1 11.6-31 5.8-16 11-29.9 11.5-31 1.8-4.1 18.2-51.5 28.3-81.7 14.8-44.3 28.5-88 38.2-121.6 1.4-4.8 4.5-15.5 6.9-23.7 3.6-12.6 7.3-25.8 15.6-56.5.7-2.5 1.3-5 1.5-5.5.1-.6 1.7-6.9 3.7-14 5.1-19.3 21.2-84.4 24.3-98.4.2-1.2 1.1-5.1 1.9-8.5.8-3.3 1.6-7.2 1.8-8.6.3-1.4 1.4-6.3 2.6-11 1.1-4.7 2.2-9.6 2.5-11 .6-3.3 1.2-6 3-14.5.9-3.9 1.8-8.1 2-9.5.3-1.4.7-3.4 1-4.5.4-1.7 8.4-41.3 10-49.5.3-1.4 1-5 1.5-8 .6-3 1.4-6.6 1.6-8 .3-1.4.8-3.8 1-5.3.2-1.6.6-4 1-5.5.8-3.9 1.2-5.9 4.5-24.2 2.8-15.6 3.3-18.4 4.5-26.3.3-1.7 1-5.5 1.5-8.2 1.1-5.5 1.6-8.8 2.5-15.5.3-2.5.8-5.2 1-6 .2-.8.7-3.5 1-6 .4-2.5 1.3-8.1 2-12.5.8-4.4 1.6-9.8 1.9-12 .4-2.2 2-13.2 3.6-24.5 1.7-11.3 3.2-22.1 3.5-24 .2-1.9 1.2-8.9 2-15.5.9-6.6 1.8-13.4 2-15 .2-1.7.9-6.4 1.4-10.5.6-4.1 1.3-9.6 1.6-12.3 1.3-11.8 1.6-14.4 2-17.2 1-7.2 3.2-26.5 4-35.5.5-5.3 1.1-10.7 2-18 .5-3.9 1.2-10.3 2-19.5.3-3.3.8-8 1-10.5.2-2.5.7-7.4 1-11 .8-9.8 1.4-15.8 2.1-23.5.3-3.9.7-8.8.9-11 .2-2.2.7-7.8 1-12.5.4-4.7.9-10.5 1-13 .3-4.6 1.2-17.2 2-29 .3-3.6.7-10.6 1-15.5.3-5 .7-13.1 1-18 .9-14.2 1.4-24.7 2-38.3.3-7 .7-17 1-22.2.4-9.5 1.2-38.2 2-72.5.6-22.7.6-113.2 0-137-.6-25.4-1.4-56-2-69.5-1-26-1.6-38.8-2-44.5-.2-3.3-.7-11-1-17-.3-6.1-.7-13.9-1-17.5-.2-3.6-.7-11-1.1-16.5-.3-5.5-.7-12.3-.9-15-.2-2.8-.6-9.1-1-14-.3-5-.8-10.6-1-12.5-.2-1.9-.7-7.3-1-12-.3-4.7-.8-10.5-1-13-.3-2.5-.8-7.7-1.1-11.5-.3-3.9-.7-8.6-.9-10.5-.2-1.9-.6-6.9-.9-11-.4-4.1-.8-8.6-1.1-10-.2-1.4-.7-6.1-1-10.5-.3-4.4-.8-9.1-1-10.5-.3-1.4-.7-5.2-1-8.5-.3-3.2-.7-7.3-1-9-.2-1.6-.7-5.7-1-9-.5-5.4-1.6-15.7-3-27-.3-2.2-1-8.1-1.5-13-1.4-11.2-2-16.3-2.5-19.5-.4-2.6-.9-6.6-2.1-16-.8-6.2-.8-6.7-1.7-13-.4-2.5-1.4-9.5-2.2-15.6-.9-6-1.7-12.1-2-13.5-.2-1.3-.9-6-1.5-10.4s-1.4-9.4-1.6-11c-.3-1.7-.7-4.6-1-6.5-.2-1.9-1.3-8.7-2.4-15-1-6.3-2.1-13.1-2.4-15-.3-1.9-1.9-11.4-3.5-21s-3.2-19.1-3.6-21c-.3-1.9-1-6-1.6-9-1.6-9.1-3.9-21.8-4.5-25.8-.3-2-.7-3.9-.9-4.2-.2-.3-.6-2.6-1-5-.4-2.5-1.3-7.5-2.1-11.2-.7-3.7-1.6-8-1.9-9.5-.2-1.6-1.6-8.4-3-15.3s-2.8-13.7-3-15.3c-.3-1.5-1.2-6-2.1-10-.8-3.9-1.8-8.3-2.1-9.7-.3-1.4-.6-3-.7-3.5-.2-.6-.6-2.8-1-5-1.4-7.2-13.4-60.7-17-75.8-2-8.2-3.8-15.8-4-17-.3-1.2-1.5-6-2.6-10.7-1.2-4.7-2.3-9.2-2.5-10.1-.6-3-13.4-52.4-17.5-67.4-2.2-8.3-5.4-20.1-7-26.3-1.7-6.2-3.6-13.2-4.4-15.5-.7-2.3-2.3-7.8-3.6-12.2-17.7-63.2-55.3-178.8-76-234-1-2.8-5.5-14.9-10-27s-8.6-22.9-9.1-24c-.4-1.1-4-10.1-7.8-20-7.6-19.7-27.5-69.4-30.1-75-.5-1.1-5.5-12.8-11.1-26s-10.9-25.8-11.9-28c-1-2.2-3.7-8.3-6-13.5-2.4-5.2-5.2-11.5-6.3-14-1.1-2.5-2.1-4.7-2.2-5-.4-1.5-16.3-36.2-25.2-55-2.5-5.2-6.3-13.3-8.5-18-5.3-11.3-50.8-102.5-55.9-112-2.2-4.1-6.6-12.5-9.8-18.5-3.2-6.1-8.2-15.5-11.1-21-6.9-13.1-32.2-58.5-44.5-80-51.4-89.8-110.1-182.7-165.3-261.5-2.5-3.6-5.5-7.9-6.6-9.5-5.2-7.5-40.6-57-45.3-63.1-1.2-1.6-6.1-8.3-11-14.9-4.8-6.6-9.3-12.7-10-13.5-.7-.8-4.6-6-8.7-11.5s-7.9-10.5-8.3-11c-.5-.6-2.9-3.7-5.3-7-2.5-3.3-4.7-6.2-5-6.5-.3-.3-4.1-5.2-8.5-10.9-8.1-10.5-51.5-65-56.4-70.7-1.4-1.7-4.2-5.1-6.1-7.5-2.8-3.5-13.3-16.1-22.8-27.4-16.3-19.3-23-27.2-24.2-28.5-.8-.9-3.5-4-6-7-2.5-2.9-4.9-5.8-5.5-6.4-.5-.6-5.7-6.5-11.5-13.1s-11.9-13.6-13.7-15.5c-1.7-1.9-4-4.4-5-5.6-4.4-5.1-14.1-15.9-16.8-18.9-1.6-1.8-5-5.4-7.4-8.1-2.4-2.7-8.4-9.2-13.2-14.4-4.8-5.2-10-10.9-11.5-12.5-3-3.3-25.4-27.1-40.9-43.4-13.6-14.3-89.2-90-103.6-103.6-20.2-19.3-49.9-47.1-55.5-52-1.7-1.6-20.6-18.8-22.4-20.5-.9-.8-3.6-3.3-6-5.4-2.5-2.2-8.1-7.2-12.5-11.1-7.1-6.4-13.4-12-23-20.4-6.5-5.7-45.7-39.2-57.5-49.1-15.4-12.9-14.4-12.1-26.5-22-5.5-4.4-10.9-8.9-12-9.8-1.1-.9-9.2-7.5-18-14.5s-16.7-13.3-17.5-14c-.8-.7-3.5-2.8-6-4.7-2.5-1.9-4.7-3.7-5-4-2.1-2.3-77.3-59.3-95.5-72.5-1.5-1.1-9.1-6.6-16.9-12.2-7.7-5.6-14.6-10.6-15.1-11-.6-.4-3.9-2.8-7.5-5.3-3.6-2.4-7.1-5-7.8-5.7-.8-.7-2.3-1.8-3.5-2.5-1.2-.6-6-3.9-10.7-7.3-19.8-14.3-85.5-58.5-86.9-58.5-.6 0-1.1-.3-1.1-.8 0-.4-1.7-1.6-3.7-2.7s-4.2-2.5-4.8-3c-.6-.6-1.8-1.5-2.8-2-.9-.6-9.4-6-18.9-12.1-19-12.3-25.4-16.3-28-17.9-1-.5-7.8-4.8-15.3-9.5-7.5-4.7-14.8-9.2-16.3-10.1-1.5-.9-11.2-6.8-21.7-13.1-10.4-6.3-26.9-16.1-36.5-21.7-9.6-5.6-18.2-10.6-19-11.1-9.4-5.7-70.8-40.1-88.5-49.5-4.9-2.6-11.2-6-14-7.5-33.5-18.3-110.3-57.1-147-74.2-9.3-4.4-19.7-9.3-23-10.8-27-12.6-68.7-31.4-89-40-5.5-2.3-12.2-5.3-15-6.5-2.7-1.3-9-3.9-14-5.9-4.9-2.1-10.3-4.3-12-5.1-1.6-.7-5.5-2.3-8.5-3.5-4.9-1.9-8-3.2-14.5-6.1-4.5-1.9-41.1-16.4-57-22.5-9.3-3.6-17.9-6.9-19-7.5-1.1-.5-4.9-2-8.5-3.2-3.6-1.3-12.6-4.7-20-7.4-72.1-27-153.5-54.1-230.5-76.8-4.4-1.3-11.8-3.5-16.5-4.9-4.7-1.5-9.4-2.8-10.5-3.1-1.1-.2-6-1.6-11-3-4.9-1.4-9.7-2.8-10.5-3-.8-.2-5.8-1.5-11-3-31.6-8.9-96.2-25.4-134-34-18-4.2-36.6-8.3-39.9-9-.9-.1-3.4-.8-5.6-1.4-2.2-.6-8.7-2-14.5-3.2-5.8-1.1-12.5-2.5-15-3s-6.1-1.2-8-1.5c-1.9-.3-3.8-.8-4.2-1-.4-.3-5.3-1.3-11-2.4-5.7-1.1-14.8-2.9-20.3-4-11.3-2.3-12.8-2.6-20.5-4-3-.6-6.6-1.2-8-1.5-2.7-.5-11.8-2.2-16.2-3-1.6-.3-4-.7-5.5-1-1.6-.3-6.6-1.2-11.3-2-4.7-.8-9.6-1.7-11-2-1.4-.3-7.9-1.4-14.5-2.5-15.3-2.6-16.8-2.8-24-4-18.4-2.9-25.2-4-27-4.4-1.1-.2-4.5-.7-7.5-1.1-3-.4-6.4-.9-7.5-1.1-1.1-.2-4.1-.6-6.6-.9-2.5-.3-5.4-.7-6.5-.9-2.5-.5-7.5-1.2-20.9-3.1-1.1-.2-4.2-.6-7-1-2.7-.3-6.1-.8-7.5-1-5.3-.8-13.8-1.9-22.5-3-2.2-.3-5.6-.8-7.6-1-2-.3-5.4-.8-7.5-1-9.3-1.1-14.1-1.7-16.4-2-1.4-.2-5.2-.7-8.5-1-3.3-.3-7.1-.8-8.5-1-2.5-.4-8.2-1-19-2.1-3-.3-8.9-.9-13-1.4-4.1-.6-10.2-1.2-13.5-1.5-7.6-.6-15.9-1.4-21-2-6.2-.7-13.4-1.4-20-2-3.3-.3-8.5-.7-11.5-1-3-.3-8.6-.7-12.5-1-3.8-.2-8.8-.6-11-.9-2.2-.3-8-.8-13-1.1-8.9-.6-11.8-.8-29-2.1-11.8-.8-16.5-1.1-31.5-1.9-6.9-.4-14.5-.9-17-1-2.5-.2-10.3-.6-17.5-.9-7.1-.3-16.8-.8-21.5-1.1-4.7-.3-15.9-.7-25-1.1-9.1-.3-22.1-.7-29-1-14.2-.5-170.7-1.3-171.2-.9zM4516 2201.4c4.7.3 12.3.8 17 1.1 4.7.3 11.4.7 15 1 6.1.4 14.6 1.2 21.6 2 1.7.2 6.2.6 10 1 3.8.3 8 .8 9.4 1 1.4.3 5.2.7 8.5 1 3.3.4 6.7.8 7.5 1 1.2.4 23.8 3.8 33 5 5.9.8 46.3 8.9 55.9 11.2 5.7 1.4 11.1 2.6 12 2.8.9.2 4.8 1.1 8.6 2 3.9.9 7.9 1.9 8.9 2.1 1 .2 3.3.8 5.1 1.4 1.8.6 4.1 1.2 5.1 1.5 1 .2 8.4 2.3 16.4 4.5 8 2.3 15 4.3 15.5 4.4.6.1 10.7 3.4 22.5 7.3 29.6 9.7 61.7 21.8 84.5 31.8 2.8 1.2 8.2 3.5 12 5.1 3.9 1.5 11.9 5.2 17.8 8.1 5.9 2.9 11 5.3 11.3 5.3 1.9 0 51.9 26.2 66.4 34.8 4.1 2.4 8.9 5.2 10.5 6.2 36.2 20.9 79.7 50.7 126.4 86.9 3.5 2.6 24 19.2 27.6 22.2 1.1 1 5.4 4.5 9.5 7.9 4.1 3.4 10.4 8.8 14 12 19.2 16.9 35.8 31.7 38.1 34 1.5 1.4 8.6 8.1 16 15 16.9 15.9 49.6 48.5 66.6 66.6 23.7 25.1 24.4 25.9 41.8 45.4 6.6 7.4 12.7 14.1 13.5 15 .8.9 3.5 4 6 7s5.2 6.1 6 7c.8.8 3.3 3.7 5.5 6.4 2.2 2.8 4.9 5.9 6 7.1 1.1 1.2 3.8 4.3 6 7 2.2 2.6 5.4 6.4 7.1 8.4 1.8 2 10 12.1 18.4 22.6 8.5 10.4 16.5 20.4 17.9 22 3.5 4.1 11.7 14.6 15.6 20.1 1.1 1.5 2.5 3.2 3 3.8.6.6 2.3 2.9 4 5.1 3.6 4.9 3.5 4.7 8.8 11.5 3.8 4.7 43.2 58 50.3 68 25.3 35.5 68.7 101 86.5 130.8 2 3.2 10.8 17.4 24.3 38.9 10.2 16.4 66.2 107.1 70 113.4 1.1 2 6.5 10.7 11.9 19.5 5.4 8.7 10.4 16.8 11 17.9.6 1.1 2.6 4.2 4.3 7 1.7 2.7 4.2 6.9 5.5 9.2 1.3 2.3 11.4 19.1 22.4 37.4 11 18.2 20.9 34.6 22 36.5 2.1 3.4 29.2 48.6 60 99.8 9.6 15.9 17.6 29.4 17.9 30 .3.6 3.7 6.2 7.6 12.5 3.8 6.3 7 11.8 7 12.3 0 .4.5.8 1 .8.6 0 1 .5 1 1.1 0 .6 1.4 3.1 3 5.6 1.7 2.4 3 4.6 3 4.8 0 .1 3.2 5.4 7 11.7 3.9 6.2 7.5 12 8 12.8.5.8 6 9.7 12.2 19.8 12.9 20.9 15 24.3 17.8 29.2 1.1 1.9 2.8 4.7 3.8 6.2 6.4 10.2 12.8 20.5 13.1 21.3.2.5 2.1 3.6 4.3 6.7 2.1 3.1 3.8 6 3.8 6.3 0 .4 2.2 3.9 4.8 7.8 4.5 6.8 26.6 41.7 28.7 45.5.6.9 6.8 10.9 13.9 22.2 54.9 87.2 95.7 144.4 148.1 207.5 5.5 6.6 10.2 12.2 10.5 12.5.3.3 4.4 5 9.1 10.5 32.8 38.2 72.4 79.3 109.9 114.1 13.6 12.5 37.7 32.6 53.6 44.4 9.5 7.2 17.4 13 17.7 13 .2 0 3.7 2.2 7.8 4.8 10.7 7 14.6 9.1 61.4 33.2 11 5.7 20.2 10.4 20.4 10.6.2.2-.1 2.3-.8 4.6-.7 2.2-1.5 5-1.7 6.1-.2 1.1-2.7 12.4-5.5 25.1-2.8 12.7-5.2 23.8-5.4 24.6-1.8 8.5-11.1 49.3-13.4 59-4.7 19.8-7 29.3-7.5 32-1.2 6.2-17.7 68.6-24.2 92-6.9 24.6-6.9 24.5-16 55-4.2 14-8 27.1-8.6 29-1.1 4-11.6 37.1-18.2 57.5-2.5 7.7-8.1 24.8-12.6 38s-8.5 25.1-9 26.5c-1.6 4.9-19.1 53.5-20 55.5-.5 1.1-5 12.8-10.1 26-8.8 23.1-15.7 40.7-18.3 47-2.8 6.5-7.8 18.8-14.4 35.5-3.9 9.6-10.9 26.9-15.7 38.5-4.8 11.5-8.9 21.6-9.3 22.4-.8 2-8.8.9-20.7-2.9-10.5-3.4-44.3-16.6-55.7-21.9-3.7-1.7-9.5-4.2-12.8-5.6-7.9-3.3-21.3-9.4-42-19.2-11.6-5.5-58-28.7-67-33.5-3.6-1.9-10.1-5.4-14.5-7.8-31.4-16.8-78.5-47.1-119.5-76.8-11.9-8.6-37.3-27.6-40.4-30.3-1.2-.9-7-5.6-13.1-10.5-11-8.7-27.6-22.3-28.5-23.4-.3-.3-5.4-4.8-11.5-10-6-5.2-11.5-9.9-12.1-10.5-.6-.5-4.9-4.4-9.4-8.5-14.4-12.9-26.7-24.8-48.5-46.5-23-23.1-38.9-39.7-56.9-60-4.9-5.5-9.2-10.2-9.5-10.5-.4-.3-3.1-3.4-6.1-7-3-3.6-6.3-7.4-7.4-8.5-14.8-16.1-65.3-79.3-94.2-118-22-29.3-20.3-27-51.7-71.5-6.4-9.1-12.1-17.2-12.7-18-.6-.8-4.2-5.9-8-11.3-3.9-5.3-7-10.1-7-10.6 0-.4-.9-1.6-2-2.6s-2-2.4-2-3.1c0-.7-.3-1.4-.8-1.6-.4-.2-5.9-8-12.1-17.3-15.6-23.2-38.5-57.7-43.2-65-2.1-3.3-4.3-6.5-4.9-7.2-.5-.7-1-1.4-1-1.7 0-.2-8.1-12.8-18-28-9.9-15.1-18-28-18-28.5s-.3-1.1-.8-1.3c-.4-.2-2.7-3.5-5-7.3-2.4-3.9-12.8-20.5-23.2-37-10.4-16.5-22.1-35.2-25.9-41.5-3.9-6.3-9.3-15.1-12-19.5-6.2-10-22.1-36-24.1-39.4-.8-1.4-4.7-7.8-8.6-14.1-6.9-11.2-20.9-34.2-22.9-37.7-.6-1-2.4-4-4-6.8-1.7-2.7-3.4-5.7-4-6.7-.5-.9-3.9-6.6-7.5-12.5s-7.6-12.7-9-15c-1.4-2.3-5.6-9.4-9.5-15.8-3.8-6.3-7.5-12.3-8-13.3-11.4-18.9-14.3-23.8-15.8-26.4-4.9-8.2-60.7-101.3-64.6-107.8-2.5-4.1-5-8.3-5.6-9.3-1.5-2.7-30.5-49.7-33.4-54.2-1.5-2.2-5.5-8.7-8.9-14.5-7.6-12.7-33.4-53.8-51.5-82-23.2-36.2-79.8-121.1-82.7-124-.3-.3-2.5-3.4-5-7-4.3-6.3-29.6-41.5-31.3-43.5-.6-.8-7-9.2-14.8-19.5-20-26.5-61.7-77-76.4-92.5-1.1-1.1-7.2-7.7-13.5-14.5-13.9-15.2-55.7-57-69.9-70-5.7-5.2-11.4-10.4-12.5-11.5-2.8-2.6-17-14.9-23.1-20-31.9-26.5-59.1-44.3-86-56.4-37.3-16.6-72.2-23.2-124.2-23.3-29.6 0-57.6 2.5-75.3 6.8-1.4.4-3.4.8-4.5 1-12.9 2.1-39.6 12.1-56.5 21.1-16.4 8.7-38.2 23.2-50.5 33.5-1.1.9-5.4 4.4-9.5 7.8-13.4 11.1-24.1 21.1-44.6 41.5-30.7 30.7-46.8 49.1-71.9 82.7-16.8 22.4-39.5 55.1-42.2 60.8-.3.8-3.3 5.5-6.5 10.3-3.2 4.9-5.8 9-5.8 9.2 0 .2-3.9 6.8-8.6 14.7-14.2 23.5-44.3 78.1-44.1 79.8 0 .3-1.2 2.4-2.6 4.8-2.5 3.9-33.4 65.2-40.5 80.2-1.6 3.6-7.2 15.3-12.2 26-5.1 10.7-16 34.3-24.2 52.5-8.2 18.1-15.9 35-17 37.5-1.1 2.5-3.3 7.4-4.8 11-1.5 3.6-3.6 8.3-4.6 10.5-1 2.2-1.8 4.2-1.9 4.5-.1.3-1.2 2.7-2.4 5.5-1.3 2.7-3.6 7.9-5.1 11.5-3.8 8.9-15.9 36.8-17.5 40.5-2.9 6.4-18.9 44.4-31 73.5-7 16.8-13.3 31.8-14 33.5-.7 1.6-3.6 8.6-6.4 15.5-2.9 6.9-5.6 13.4-6.1 14.5-.4 1.1-2.7 6.7-5 12.5s-4.8 11.8-5.5 13.5c-.7 1.6-6.2 14.9-12.1 29.5-5.9 14.6-11.1 26.9-11.6 27.5-.4.5-.8 1.5-.8 2.3 0 .7-.8 3.2-1.9 5.5-1 2.3-2.9 6.7-4.1 9.7-1.2 3-2.8 6.8-3.6 8.5-.7 1.6-4.4 10.6-8.2 20-15.3 37.4-18.5 45.1-19.7 48-.7 1.6-8.8 21-18 43s-17.3 41.3-18 43c-.7 1.6-5.7 13.3-11 26-5.4 12.6-10.6 25-11.7 27.5-1 2.5-2.3 5.4-2.8 6.5-.4 1.1-1.7 4-2.8 6.5-1.1 2.5-5 11.7-8.7 20.5-3.7 8.8-7.5 17.8-8.5 20-1 2.2-3.7 8.3-6 13.5-2.3 5.2-5 11.3-6 13.5-1 2.2-5.1 11.4-9 20.5-3.9 9.1-8.2 18.7-9.5 21.5-1.3 2.7-6.1 13.1-10.6 23s-9.3 20.5-10.7 23.5c-1.4 3-2.6 5.7-2.6 6-.1.3-.9 2.1-1.8 4s-4 8.4-6.8 14.5c-13.4 28.5-20.8 43.8-38.6 79-10.5 20.9-20.6 40.7-22.4 44-1.8 3.3-4.5 8.2-6 11-1.5 2.7-4.6 8.6-7 13-6.5 12-9.9 18.3-14.3 26-2.2 3.8-5.1 9-6.5 11.5-9.2 16.6-11.9 21.1-14.8 25.8-1.9 2.9-3.4 5.5-3.4 5.8 0 .3-1.6 3-3.5 6s-3.5 5.9-3.5 6.4c0 .6-.3 1-.8 1-.4 0-1.3 1.3-2 2.9-.7 1.5-2.5 4.8-4.1 7.2-5.2 8-15.1 24-15.1 24.4 0 .2-1.3 2.3-2.8 4.7-1.6 2.4-6.7 10.1-11.3 17.3-12.7 19.7-34 51.2-46.2 68.5-11 15.4-35.2 48.5-37.2 50.6-.5.7-5 6.4-10 12.9-7.8 10.1-21.9 27.7-25 31.1-.5.6-2.2 2.6-3.7 4.5-1.4 1.9-3.5 4.4-4.5 5.5-1 1.2-3.6 4.3-5.8 7-2.2 2.6-4.5 5.2-5 5.8-.6.6-3.7 4.2-7 8.1-3.3 3.8-7.6 8.7-9.5 10.8-1.9 2.2-4.4 4.9-5.5 6.2-24.1 27.1-73.5 77-91.5 92.5-1.4 1.2-5.6 5-9.5 8.4-9.8 8.8-17.5 15.5-22.5 19.6-2.3 1.9-4.7 4-5.4 4.5-1.2 1.2-22.5 18.6-24.1 19.7-.5.4-3.5 2.7-6.5 5.1-39.2 31-87.2 62.8-135.5 89.6-17.4 9.7-59.7 31.4-61.5 31.6-.3 0-3.4 1.5-7 3.2-9.2 4.4-28.9 12.9-39.5 17-4.9 1.9-10.3 4.1-12 4.8-18.9 8.3-98.6 34.1-114.5 37.1-1.4.3-4.3 1-6.5 1.6-2.2.6-4.4 1.1-5 1.2-.5.2-2.9.8-5.2 1.4-9.1 2.6-53.2 11.7-71 14.7-1.6.2-9.5 1.5-17.8 2.9-8.2 1.3-19.3 3-24.5 3.6-5.2.6-10.6 1.3-12 1.5-6.7 1-11.2 1.5-18.5 2.1-4.4.3-8.2.7-8.5.9-.3.1-5.7.6-12 1s-12.2.9-13.1 1c-5.8 1.1-40 2-73.4 1.9-35.7-.1-49.9-.5-67.3-2-3.5-.3-8.9-.7-12-.9-14-1.1-19.7-1.7-35.1-3.5-18.2-2.3-22-2.8-27.1-3.6-1.9-.3-4.6-.7-6-.9-3.5-.5-15-2.4-18-3-2.6-.5-6.2-1.1-11.5-2-7.8-1.2-38.8-7.9-55.8-12-23.6-5.7-59.2-15.9-77.7-22.2-56.3-19.2-95.5-35.4-144-59.7-14.6-7.3-30.1-15.3-34.5-17.8-4.4-2.5-10.5-5.9-13.5-7.5-9.2-4.9-27.6-15.9-43.3-25.6-8.1-5.1-15.6-9.7-16.5-10.2-2.2-1.2-40.7-27.2-47.7-32.1-18-12.8-65.4-48.8-67.5-51.3-.3-.3-4.1-3.5-8.5-7.1-10.7-8.6-36.5-30.7-44.5-38-1.5-1.4-6.9-6.3-12-11-33.1-30-81.7-79.1-109.6-110.5-4.9-5.5-9.1-10.2-9.4-10.5-.3-.3-6-6.8-12.5-14.5-6.6-7.7-12.4-14.5-13-15.1-3.4-3.8-7.2-8.4-16.6-19.9-15.5-19.2-27.1-33.6-30.1-37.5-1.5-1.9-6-7.8-10-13-21.1-27.1-65.3-88.2-89.1-123-22.6-33-57.2-85.1-73.2-110-4.4-6.8-10.3-16-13.2-20.5-2.8-4.4-11.4-17.8-19-29.8s-14.5-22.9-15.3-24.2c-1.6-2.5-12.4-19.8-15-24-.8-1.4-9.1-14.7-18.4-29.7-15.5-24.8-45.5-73.8-56.1-91.3-34.9-58-52.2-86.8-54.3-90.5-1.3-2.5-2.8-5-3.2-5.5-.8-1-24.5-40-28-46-.9-1.7-12.2-20.3-25-41.5s-24-39.6-24.7-41c-.8-1.4-2.2-3.7-3.1-5.2-3.6-5.8-31.9-51.8-34.3-55.8-.5-.8-3.6-5.9-6.9-11.3-3.3-5.4-6-10.2-6-10.7 0-.4-.3-1-.7-1.2-1-.4-7.3-10.7-7.3-11.9 0-.5-.4-.9-1-.9-.5 0-1-.4-1-1 0-.5-3.4-6.5-7.7-13.2-4.2-6.8-11.2-18.2-15.6-25.3-4.4-7.2-9-14.6-10.3-16.5-6.5-10.3-7.9-12.6-8.4-13.5-.3-.6-6.3-10.2-13.3-21.5-7.1-11.3-13.4-21.4-14-22.5-.7-1.1-2.8-4.5-4.8-7.5-2.1-3-9.1-14.1-15.8-24.5-21.3-33.6-71.7-104.1-90.5-126.6-.7-.9-3.7-4.7-6.6-8.5-16.4-21.2-43.2-53.9-61-74.4-5.5-6.3-8.5-9.8-21-24-3.6-4.1-10.3-11.5-15-16.4-4.7-5-11.3-12-14.5-15.5-12.7-13.6-36.3-36.7-47.9-46.6-3.2-2.8-6.8-5.9-8.1-7-11.7-10.2-41.6-30.9-66-45.7-4.9-3-9.7-5.7-10.5-6.1-.8-.4-3.5-1.9-6-3.3-2.5-1.5-11-6-19-10.1-8-4.2-15.1-8-15.8-8.5-.6-.6-1.2-.8-1.2-.5 0 .3-4.4-1.5-9.7-4-17.9-8.3-44.5-17.6-56.8-19.8-2.2-.4-4.9-.9-6-1.1-1.1-.1-7.3-.5-13.9-.9-13-.6-18.2-2.2-19.7-6.2-1.2-3.1-1.2-9.7.1-16.1.5-2.8 1.2-7.3 1.5-9.9.4-2.6.8-5.5 1-6.3.2-.8.7-3.8 1.1-6.5.3-2.8.8-5.9 1-7 .2-1.1.7-4 1-6.5.3-2.5.7-5.6.9-7 .2-1.4.9-7 1.5-12.5s1.3-11.1 1.5-12.5c.3-1.4.7-5.4 1.1-9 .3-3.6.8-7.3 1-8.4.2-1 .6-4.4.9-7.5.4-3.1.8-6.3 1-7.1.2-.8.7-4 1-7 .6-5.2 6-39.5 7.1-45 .3-1.4.7-3.9 1-5.5.2-1.7 1.6-9.1 3-16.5s2.8-14.6 3-16c3.2-17.2 13.5-67.1 22-105.5 1.4-6.6 2.7-12.7 2.9-13.6.2-.9.8-3.3 1.4-5.5.9-3.3 2.4-9.4 5.6-23.9 6-26.9 27.1-112 34.2-137.5 2.5-9.1 5.1-18.8 5.8-21.5 14.1-52.7 30.3-105.3 43-139.5 8.5-23.1 12.6-30.1 18.9-32.1 6.7-2.3 18.6-1.6 36.1 2.1 25.5 5.4 42.4 9.1 45.9 10.1 2.1.6 4.6 1.2 5.5 1.4 5.8 1.4 28.4 7.6 32.1 8.8 2.5.8 9.9 3.2 16.5 5.2 29.9 9.2 70.6 25 107 41.4 17.5 8 55.6 26.9 67.5 33.6 4.1 2.3 9.8 5.4 12.5 7 14.5 8 19.1 10.6 31 17.9 7.2 4.3 14.1 8.5 15.5 9.2 3.2 1.7 45.3 29.2 54.9 35.9 13.3 9.2 23.6 16.5 25.1 17.8.8.7 2.7 2 4.1 2.9 1.4.9 3.2 2.3 4 3 .8.8 3 2.4 4.9 3.8 1.9 1.3 4.9 3.5 6.7 4.9 1.7 1.4 5.3 4.2 8 6.1 2.6 1.9 8.2 6.2 12.3 9.5 4.1 3.3 8.2 6.5 9 7.2 1.8 1.4 12.7 10.1 15.4 12.3 3.9 3.1 46.1 39.3 46.6 39.9.3.4 8.4 7.9 18 16.7 32.7 30.1 83 81.4 113.5 115.8 9.4 10.6 17.9 20.3 21.5 24.6 2.5 2.9 5 5.8 5.5 6.4.6.6 3.5 4 6.5 7.6 3 3.6 5.7 6.7 6 7 .3.3 3.9 4.5 7.9 9.5 9.3 11.5 13.7 16.9 18.1 22.1 4 4.8 9.6 11.9 22.8 28.9 5.1 6.6 9.8 12.7 10.5 13.5.7.9 3.9 5.1 7.2 9.5 6.2 8.4 7.2 9.7 9.3 12 .6.7 1.2 1.8 1.2 2.3 0 .6.4 1.2.9 1.4.7.2 14.8 19.5 32.7 44.3 18.7 26.1 79.7 115.6 82.4 121 .3.5 2.7 4.4 5.4 8.5s6.8 10.4 9.1 14c2.3 3.6 7.6 11.7 11.7 18 4.1 6.3 13.6 21.4 21.2 33.5 7.6 12.1 14.9 23.6 16.1 25.5 8 12.2 40.8 65.8 64 104.5 2.3 3.8 17.3 28.8 33.3 55.3 16.1 26.6 29.2 48.6 29.2 48.8 0 .3.9 1.7 1.9 3.2 1.1 1.5 18 29.7 37.6 62.7 19.7 33 37.3 62.5 39.2 65.5 1.9 3 5.3 8.6 7.7 12.5 2.3 3.8 7.4 12.2 11.3 18.5 3.9 6.3 15.9 26.1 26.8 44 10.8 17.9 20.6 33.7 21.6 35.2s1.9 2.9 1.9 3.2c0 .2 4.2 7.1 9.4 15.3 5.1 8.1 14.5 23.1 20.9 33.3 6.4 10.2 14 22.3 16.9 26.8 2.9 4.6 5.8 9.2 6.3 10.1 1.6 2.8 29.9 46.5 39.8 61.6 12.2 18.6 42.8 63.9 43.6 64.5.3.3 3.5 4.8 7 10 7 10.3 40.6 56.8 44.3 61.2 1.3 1.5 4.6 5.8 7.3 9.5 5.6 7.5 27.1 34.8 31.9 40.4 1.7 2 4 4.7 5 6 5.9 7.3 30.2 35.3 37.7 43.4 2.5 2.7 7.5 8.1 11 12 7.4 8.2 57.4 58.2 66.9 67 3.6 3.3 10.3 9.4 15 13.5 4.7 4.1 8.7 7.7 9 8 11.2 11.2 58.4 45.6 71.5 52.2 1.7.8 5.9 3.1 9.5 5 31.4 17.2 72.1 27.7 117.9 30.4 20.2 1.2 65.4.6 75.1-1 1.4-.3 5.5-.7 9.2-1.1 3.7-.3 7.7-.8 9-1 1.3-.2 4.1-.6 6.2-1 2.1-.3 4.8-.7 6-1 1.2-.3 3.2-.7 4.6-.9 4.6-.8 21.4-5.5 28.5-8 10-3.5 21.6-8.8 35.8-16.4 4.8-2.6 26.1-16.7 30.7-20.4 33-26.2 61.9-53 85.5-79.2 11-12.3 31.4-37.6 44-54.8 9.3-12.7 38.5-55.3 38.5-56.3 0-.2 3.6-6.1 8-13.1 9.6-15 29.3-48.7 37.3-63.4 1.6-3 4-7.3 5.2-9.5 1.2-2.2 3.6-6.6 5.4-9.8 1.7-3.1 4.4-8.1 6-11 10.9-20 49.9-97.7 60.6-120.7 3.5-7.4 9.3-19.7 12.9-27.3 3.6-7.6 6.6-14 6.6-14.2 0-.2 1.7-4.1 3.9-8.7 8.7-18.8 25.4-55.5 33.6-74.3 4.8-11 10-22.8 11.5-26.2 1.6-3.3 11.3-25.8 21.5-50 10.3-24.1 19.3-45.2 20-46.8.7-1.7 4.3-10.2 8-19 3.6-8.8 7.2-17.4 8-19 .7-1.7 4.6-10.9 8.5-20.5 4-9.6 8.1-19.3 9.1-21.6 1.1-2.2 1.9-4.4 1.9-4.8 0-.4.8-2.6 1.9-4.9 1-2.3 8.9-21.5 17.6-42.7 8.6-21.2 16.5-40.4 17.6-42.7 1-2.4 1.9-4.9 1.9-5.7 0-.8.4-1.7 1-2.1.5-.3 1.4-2 1.9-3.8.9-3 6.6-17.4 9.6-24.2.7-1.7 4.3-10.4 8-19.5s7.3-18.1 8.2-20c2.5-5.8 2.8-6.4 15.4-37 11.8-28.7 29.3-70.4 32.9-78.5 1-2.2 4.1-9.6 7-16.5 4.5-10.9 17.9-42 23-53.5 1.5-3.4 5.6-12.7 10.5-24 .7-1.7 2.2-5 3.3-7.5 1.1-2.5 3.2-7.4 4.7-11 1.5-3.6 4.2-9.7 6-13.5 1.8-3.9 8.3-18 14.3-31.5 6.1-13.5 13.3-29.2 16-35 2.7-5.8 6.1-13 7.5-16 1.4-3 4.5-9.8 7-15 2.4-5.2 6.5-13.8 9-19 7.3-15.5 35.9-73 47.3-95 9.3-18.2 12.4-23.9 19.5-36.7 1-1.8 3.5-6.3 5.5-10 24-44.4 54.7-95.6 83-138.3 8.1-12.4 15.2-23 15.6-23.5.5-.6 6.5-9 13.3-18.7 6.8-9.8 15.3-21.6 18.7-26.2 3.5-4.6 7.2-9.6 8.3-11.1 1.1-1.6 2.9-4 4-5.5 4.6-6.3 30.6-39.6 39.5-50.5 3.5-4.4 7-8.7 7.7-9.5.6-.8 7.2-8.7 14.5-17.5 12.2-14.7 15.6-18.7 21.3-25 5.3-6 8.3-9.4 11.4-13 12.7-15.1 63.9-66.8 80.2-81 3-2.7 18.6-16.4 21.5-19 3.9-3.5 8.5-7.3 20.7-17.4 7.7-6.2 14.6-11.9 15.5-12.7 1-.7 9.6-7.2 19.2-14.4s18.3-13.8 19.3-14.6c.9-.7 2-1.4 2.4-1.4.4 0 1.6-.8 2.7-1.9 4.9-4.4 57.7-39 70.9-46.4 2.3-1.4 11.2-6.5 19.7-11.4 18.7-10.8 67.4-36.3 69.3-36.3.3 0 6-2.6 12.8-5.9 6.8-3.2 19.2-8.7 27.4-12.1 8.3-3.4 16.8-7 19-8 2.2-1 9.2-3.6 15.5-5.9 6.3-2.3 12.9-4.8 14.6-5.6 8.1-3.8 77.7-25.7 92.1-29 1-.2 5.2-1.3 9.3-2.4 23.1-5.9 66.9-15.2 83.5-17.7 1.1-.1 3.6-.5 5.5-.8 11-1.8 37.4-5.6 43-6.1 3.6-.3 7.6-.8 9-1 1.4-.2 5.8-.7 9.9-1.1 4.1-.3 8.3-.8 9.4-1 1-.2 6.7-.6 12.6-1 5.8-.3 12.4-.8 14.6-1 2.2-.1 11.4-.6 20.5-1s16.6-.8 16.8-.9c.5-.4 70.4.3 78.2.9z"/></svg>